<svg xmlns="http://www.w3.org/2000/svg" viewBox="0 0 80 80"><defs><style>.cls-1{fill:#fff;fill-rule:evenodd;opacity:0.8;}</style></defs><title>1Fichier 1</title><g id="Calque_2" data-name="Calque 2"><g id="Mode_Isolation" data-name="Mode Isolation"><path id="CIRCLE_PLAY" data-name="CIRCLE / PLAY" class="cls-1" d="M40,80A40,40,0,1,1,80,40,40,40,0,0,1,40,80Zm9.17-38.08L37.35,49.33v0l-.26.14h0l-.28.1h0l-.12,0h0l-.14,0h-.33a2.23,2.23,0,0,1-2.23-2.23h0V32.58h0a2.23,2.23,0,0,1,2.23-2.23,2.19,2.19,0,0,1,1.26.39l11.73,7.33A2.21,2.21,0,0,1,50.27,40,2.24,2.24,0,0,1,49.17,41.92Z"/></g></g></svg>