<svg xmlns="http://www.w3.org/2000/svg" viewBox="0 0 48.07 63.79"><defs><style>.cls-1{fill:#604dd6;}</style></defs><title>1Fichier 1</title><g id="Calque_2" data-name="Calque 2"><g id="Calque_1-2" data-name="Calque 1"><path class="cls-1" d="M12.61,10.66a48.28,48.28,0,0,1,6.92,24.47,34.3,34.3,0,0,1-8.35,22.56,6.32,6.32,0,0,1-4.3,2.63,6.62,6.62,0,0,1-4.18-.84A5.66,5.66,0,0,1,.2,56.14C-.28,54.63.11,53,1.39,51.25a56.4,56.4,0,0,0,4.3-7.88,25.51,25.51,0,0,0,2-8.12A31.05,31.05,0,0,0,7,26.06,61.07,61.07,0,0,0,3.06,14.72a4.86,4.86,0,0,1-.24-4.42A5.27,5.27,0,0,1,5.57,7.8a5.66,5.66,0,0,1,3.82-.12A5.36,5.36,0,0,1,12.61,10.66Zm25.78-7.4a97.66,97.66,0,0,1,6.93,15A46,46,0,0,1,48.06,33a40,40,0,0,1-2.5,14.45,44.14,44.14,0,0,1-8.84,14.08,5.1,5.1,0,0,1-4.3,2.27,6.18,6.18,0,0,1-4.05-1.67,6.5,6.5,0,0,1-2-3.94,5.42,5.42,0,0,1,1.55-4.54q5.73-6,7.52-11.93A28.21,28.21,0,0,0,36.48,30a38.15,38.15,0,0,0-3.22-11.22q-2.5-5.49-5.37-10.5a5.29,5.29,0,0,1-.6-4.66A5.58,5.58,0,0,1,30,.64,6.75,6.75,0,0,1,34.45.16,5.62,5.62,0,0,1,38.39,3.26Z"/></g></g></svg>