<svg xmlns="http://www.w3.org/2000/svg" viewBox="0 0 50.29 63.53"><defs><style>.cls-1{fill:#604dd6;}</style></defs><title>1Fichier 1</title><g id="Calque_2" data-name="Calque 2"><g id="Calque_1-2" data-name="Calque 1"><path class="cls-1" d="M6.18,4.15A6.13,6.13,0,0,1,9.76.45,6.83,6.83,0,0,1,14.3.33a5.5,5.5,0,0,1,3.22,2.75A5.54,5.54,0,0,1,17.4,8a94.4,94.4,0,0,0-4.17,11,40.57,40.57,0,0,0-1.91,11.46A27.58,27.58,0,0,0,13.7,42a30.62,30.62,0,0,0,8.72,11.1,5.33,5.33,0,0,1,2,4.3,6.61,6.61,0,0,1-1.56,4.06,5.92,5.92,0,0,1-3.7,2c-1.51.23-3.06-.36-4.65-1.8A40.65,40.65,0,0,1,4.27,48.91,40.9,40.9,0,0,1,.21,34.71a48.31,48.31,0,0,1,1-15A87.35,87.35,0,0,1,6.18,4.15Zm26.5,4.3a5.9,5.9,0,0,1,3-3.34,5.26,5.26,0,0,1,3.94-.36,5.36,5.36,0,0,1,3,2.26A5.66,5.66,0,0,1,43,11.55a64.21,64.21,0,0,0-2.75,11.7,29,29,0,0,0,.24,9.19,25.46,25.46,0,0,0,3,7.88,58.55,58.55,0,0,0,5.25,7.52,5.92,5.92,0,0,1,1.55,4.65,5,5,0,0,1-2,3.47A7.07,7.07,0,0,1,44,57.15,6.5,6.5,0,0,1,39.37,55,34.87,34.87,0,0,1,28.62,33.51,48.29,48.29,0,0,1,32.68,8.45Z"/></g></g></svg>